{"glyphs":{"\u0000":{"ha":0,"x_min":0,"x_max":0,"o":""},"\r":{"ha":347,"x_min":0,"x_max":0,"o":""}," ":{"ha":347,"x_min":0,"x_max":0,"o":""},"A":{"ha":861,"x_min":0,"x_max":0,"o":"m 833 0 b 781 103 813 29 797 63 l 433 972 l 408 886 l 719 103 b 714 0 736 63 729 35 z m 750 335 b 93 336 475 215 288 440 l 96 331 b 754 329 342 392 475 126 z m 110 0 b 104 103 94 35 89 63 l 419 899 l 433 972 l 421 972 l 81 103 b 28 0 65 63 47 31 z "},"B":{"ha":882,"x_min":0,"x_max":0,"o":"m 439 -21 b 833 271 631 -21 833 81 b 369 542 833 474 621 542 l 369 521 b 768 271 578 521 768 467 b 439 0 768 107 625 0 b 147 138 308 0 194 61 l 136 128 b 439 -21 183 51 289 -21 z m 194 0 b 174 74 183 25 174 44 l 174 899 b 194 972 174 928 183 947 l 97 972 b 118 899 108 947 118 928 l 118 74 b 97 0 118 44 108 25 z m 382 521 l 382 542 l 150 542 l 150 521 z m 368 951 l 368 972 l 150 972 l 150 951 z m 342 521 b 729 764 533 521 729 601 b 356 972 729 911 593 972 l 356 951 b 671 764 550 951 671 911 b 342 542 671 611 528 542 z "},"C":{"ha":949,"x_min":0,"x_max":0,"o":"m 542 -21 b 893 167 726 -21 818 65 l 879 179 b 542 0 806 81 725 0 b 128 479 251 0 128 225 b 383 951 128 682 225 882 l 747 951 b 793 851 815 951 818 904 l 676 621 l 694 611 l 876 972 l 347 972 b 63 479 163 894 63 683 b 542 -21 63 214 210 -21 z "},"D":{"ha":957,"x_min":0,"x_max":0,"o":"m 439 -21 b 894 525 728 -21 894 238 b 397 972 894 797 758 972 l 397 951 b 829 525 715 951 829 790 b 439 0 829 264 722 0 b 147 149 308 0 194 72 l 136 139 b 439 -21 183 63 289 -21 z m 194 0 b 174 74 183 25 174 44 l 174 899 b 194 972 174 928 183 947 l 97 972 b 118 899 108 947 118 928 l 118 74 b 97 0 118 44 108 25 z m 410 951 l 410 972 l 150 972 l 150 951 z "},"E":{"ha":949,"x_min":0,"x_max":0,"o":"m 542 -21 b 893 167 726 -21 818 65 l 879 179 b 542 0 806 81 725 0 b 128 479 251 0 128 225 b 383 951 128 682 225 882 l 747 951 b 793 851 815 951 818 904 l 676 621 l 694 611 l 876 972 l 347 972 b 63 479 163 894 63 683 b 542 -21 63 214 210 -21 z m 528 411 b 664 474 578 411 632 446 l 660 481 b 108 500 483 382 301 588 l 108 479 b 528 411 282 557 363 411 z "},"F":{"ha":701,"x_min":0,"x_max":0,"o":"m 674 972 l 146 972 l 146 951 l 544 951 b 590 851 613 951 615 904 l 474 621 l 492 611 z m 194 0 b 174 74 183 25 174 44 l 174 899 b 194 972 174 928 183 947 l 97 972 b 118 899 108 947 118 928 l 118 74 b 97 0 118 44 108 25 z m 138 493 b 493 514 296 589 360 358 b 138 514 375 438 249 607 z "},"G":{"ha":969,"x_min":0,"x_max":0,"o":"m 542 -21 b 893 167 726 -21 818 65 l 879 179 b 542 0 806 81 725 0 b 128 479 251 0 128 225 b 383 951 128 682 225 882 l 747 951 b 793 851 815 951 818 904 l 676 621 l 694 611 l 876 972 l 347 972 b 63 479 163 894 63 683 b 542 -21 63 214 210 -21 z m 585 310 b 896 350 707 310 771 428 l 897 371 b 460 379 749 456 628 285 l 456 374 b 585 310 474 347 528 310 z m 897 167 l 897 371 l 842 385 l 842 213 b 806 93 842 140 829 125 z "},"H":{"ha":1039,"x_min":0,"x_max":0,"o":"m 942 0 b 921 74 931 25 921 44 l 921 899 b 942 972 921 928 931 947 l 844 972 b 865 899 856 947 865 928 l 865 74 b 844 0 865 44 856 25 z m 194 0 b 174 74 183 25 174 44 l 174 899 b 194 972 174 928 183 947 l 97 972 b 118 899 108 947 118 928 l 118 74 b 97 0 118 44 108 25 z m 674 425 b 904 514 817 425 893 490 b 129 514 701 378 333 607 l 129 493 b 674 425 303 571 508 425 z "},"I":{"ha":292,"x_min":0,"x_max":0,"o":"m 194 0 b 174 74 183 25 174 44 l 174 899 b 194 972 174 928 183 947 l 97 972 b 118 899 108 947 118 928 l 118 74 b 97 0 118 44 108 25 z "},"J":{"ha":335,"x_min":0,"x_max":0,"o":"m 224 264 l 224 899 b 244 972 224 928 233 947 l 147 972 b 168 899 158 947 168 928 l 168 264 z m 35 -21 b 224 264 224 -21 224 138 l 168 264 b 35 0 168 133 192 0 z "},"K":{"ha":835,"x_min":0,"x_max":0,"o":"m 158 383 l 656 869 b 778 972 686 900 732 938 l 688 972 b 624 869 703 938 657 903 l 126 383 z m 194 0 b 174 74 183 25 174 44 l 174 899 b 194 972 174 928 183 947 l 97 972 b 118 899 108 947 118 928 l 118 74 b 97 0 118 44 108 25 z m 810 0 b 726 74 771 31 753 44 l 313 540 l 274 503 l 651 74 b 672 0 679 42 681 25 z "},"L":{"ha":701,"x_min":0,"x_max":0,"o":"m 660 0 l 478 361 l 460 351 l 576 121 b 531 21 601 68 599 21 l 146 21 l 146 0 z m 194 0 b 174 74 183 25 174 44 l 174 899 b 194 972 174 928 183 947 l 97 972 b 118 899 108 947 118 928 l 118 74 b 97 0 118 44 108 25 z "},"M":{"ha":1097,"x_min":0,"x_max":0,"o":"m 164 0 b 143 74 153 25 143 44 l 143 918 l 539 0 l 551 0 l 924 913 l 924 74 b 903 0 924 44 914 25 l 1000 0 b 979 74 989 25 979 44 l 979 899 b 1000 972 979 928 989 947 l 924 972 l 561 92 l 181 972 l 97 972 b 118 899 108 947 118 928 l 118 74 b 97 0 118 44 108 25 z "},"N":{"ha":967,"x_min":0,"x_max":0,"o":"m 838 75 l 171 972 l 103 972 l 824 0 z m 164 0 b 143 74 153 25 143 44 l 143 972 l 97 972 b 118 899 108 947 118 928 l 118 74 b 97 0 118 44 108 25 z m 849 0 l 849 899 b 869 972 849 928 858 947 l 803 972 b 824 899 814 947 824 928 l 824 0 z "},"O":{"ha":1068,"x_min":0,"x_max":0,"o":"m 535 -21 b 1006 479 835 -21 1006 228 b 535 993 1006 731 835 993 b 63 479 238 993 63 731 b 535 -21 63 228 238 -21 z m 535 0 b 128 479 279 0 128 239 b 535 972 128 719 279 972 b 940 479 792 972 940 719 b 535 0 940 239 792 0 z "},"P":{"ha":861,"x_min":0,"x_max":0,"o":"m 439 410 b 819 701 617 410 819 511 b 397 972 819 890 649 972 l 397 951 b 754 701 606 951 754 883 b 439 431 754 538 611 431 b 147 568 308 431 194 492 l 136 558 b 439 410 183 482 289 410 z m 194 0 b 174 74 183 25 174 44 l 174 899 b 194 972 174 928 183 947 l 97 972 b 118 899 108 947 118 928 l 118 74 b 97 0 118 44 108 25 z m 410 951 l 410 972 l 150 972 l 150 951 z "},"Q":{"ha":1068,"x_min":0,"x_max":0,"o":"m 535 -21 b 685 1 589 -21 639 -12 l 825 -133 b 996 -162 864 -171 922 -183 b 722 17 921 -140 854 -94 b 1006 479 904 94 1006 286 b 535 993 1006 731 835 993 b 63 479 238 993 63 731 b 535 -21 63 228 238 -21 z m 128 479 b 535 972 128 719 279 972 b 940 479 792 972 940 719 b 535 0 940 239 792 0 b 128 479 279 0 128 239 z "},"R":{"ha":872,"x_min":0,"x_max":0,"o":"m 397 431 b 792 715 617 431 792 539 b 397 972 792 904 649 972 l 397 951 b 726 715 606 951 726 897 b 389 451 726 565 608 451 z m 194 0 b 174 74 183 25 174 44 l 174 899 b 194 972 174 928 183 947 l 97 972 b 118 899 108 947 118 928 l 118 74 b 97 0 118 44 108 25 z m 810 0 b 726 74 771 31 753 44 l 390 451 l 326 451 l 653 74 b 674 0 681 42 682 25 z m 410 951 l 410 972 l 150 972 l 150 951 z "},"S":{"ha":904,"x_min":0,"x_max":0,"o":"m 449 -21 b 844 257 697 -21 844 103 b 149 743 844 593 149 456 b 321 951 149 797 175 904 l 699 951 b 744 851 767 951 769 904 l 628 621 l 646 611 l 828 972 l 285 972 b 83 743 133 935 83 822 b 779 257 83 388 776 536 b 449 0 779 100 683 0 b 69 179 265 0 143 81 l 56 167 b 449 -21 131 65 264 -21 z "},"T":{"ha":896,"x_min":0,"x_max":0,"o":"m 238 621 l 121 851 b 167 951 96 904 99 951 l 419 951 l 419 74 b 399 0 419 44 410 25 l 496 0 b 475 74 485 25 475 44 l 475 951 l 729 951 b 775 851 797 951 800 904 l 658 621 l 676 611 l 858 972 l 38 972 l 219 611 z "},"U":{"ha":925,"x_min":0,"x_max":0,"o":"m 471 -21 b 814 333 715 -21 814 124 l 789 333 b 471 0 789 135 700 0 b 167 342 243 0 167 129 l 111 342 b 471 -21 111 118 229 -21 z m 167 342 l 167 899 b 188 972 167 928 176 947 l 90 972 b 111 899 101 947 111 928 l 111 342 z m 814 333 l 814 899 b 835 972 814 928 824 947 l 768 972 b 789 899 779 947 789 928 l 789 333 z "},"V":{"ha":861,"x_min":0,"x_max":0,"o":"m 453 86 l 142 869 b 147 972 125 910 132 938 l 28 972 b 81 869 49 943 64 910 l 428 0 z m 440 0 l 781 869 b 833 972 796 910 814 942 l 751 972 b 757 869 767 938 772 910 l 442 74 l 428 0 z "},"W":{"ha":1290,"x_min":0,"x_max":0,"o":"m 910 86 l 626 869 b 632 972 611 910 617 938 l 513 972 b 565 869 533 943 550 910 l 885 0 z m 425 86 l 142 869 b 147 972 126 910 132 938 l 28 972 b 81 869 49 943 65 910 l 400 0 z m 413 0 l 664 708 l 647 728 l 414 74 l 400 0 z m 897 0 l 1210 869 b 1263 972 1224 910 1243 942 l 1181 972 b 1186 869 1196 938 1201 910 l 899 74 l 885 0 z "},"X":{"ha":869,"x_min":0,"x_max":0,"o":"m 824 0 b 736 103 785 35 765 64 l 214 869 b 185 972 188 913 169 938 l 60 972 b 147 869 99 938 122 908 l 669 103 b 699 0 693 65 714 35 z m 115 0 b 147 103 100 35 121 67 l 449 514 l 431 524 l 122 103 b 32 0 93 63 69 35 z m 747 869 b 838 972 776 910 800 938 l 754 972 b 722 869 769 938 749 906 l 432 469 l 454 465 z "},"Y":{"ha":828,"x_min":0,"x_max":0,"o":"m 443 417 l 172 869 b 150 972 147 911 135 938 l 25 972 b 106 869 64 938 81 910 l 411 361 z m 472 0 b 451 74 461 25 451 44 l 451 417 l 396 417 l 396 74 b 375 0 396 44 386 25 z m 424 361 l 722 869 b 803 972 747 911 765 938 l 719 972 b 697 869 735 938 721 908 l 424 401 l 411 361 z "},"Z":{"ha":851,"x_min":0,"x_max":0,"o":"m 115 21 l 749 951 l 693 971 l 47 21 z m 804 0 l 622 361 l 604 351 l 721 121 b 675 21 746 68 743 21 l 47 21 l 47 0 z m 254 621 l 138 851 b 183 951 113 904 115 951 l 749 951 l 749 972 l 54 972 l 236 611 z "},"a":{"ha":642,"x_min":0,"x_max":0,"o":"m 250 -18 b 500 253 418 -18 500 104 l 486 253 b 250 0 486 118 414 0 b 100 164 174 0 100 51 b 500 494 100 403 500 350 l 486 499 b 44 164 486 356 44 415 b 250 -18 44 39 139 -18 z m 558 0 b 538 74 547 25 538 44 l 538 694 l 486 694 l 486 0 z m 93 631 b 222 679 115 651 179 679 l 525 679 l 525 694 l 93 694 z "},"b":{"ha":744,"x_min":0,"x_max":0,"o":"m 378 -18 b 696 343 586 -18 696 149 b 378 713 696 536 588 713 b 142 442 238 713 142 590 l 156 442 b 378 694 156 576 242 694 b 640 343 551 694 640 524 b 378 0 640 161 551 0 b 156 253 242 0 156 118 l 142 253 b 378 -18 142 104 238 -18 z m 156 0 l 156 1000 l 83 972 b 104 899 94 947 104 928 l 104 74 b 83 0 104 44 94 25 z "},"c":{"ha":725,"x_min":0,"x_max":0,"o":"m 394 -18 b 681 183 544 -18 625 63 l 664 190 b 394 0 618 69 525 0 b 104 343 221 0 104 161 b 394 694 104 524 221 694 b 615 504 531 694 588 607 l 650 525 b 394 713 618 625 524 713 b 49 343 185 713 49 536 b 394 -18 49 149 186 -18 z "},"d":{"ha":744,"x_min":0,"x_max":0,"o":"m 367 -18 b 603 253 507 -18 603 104 l 589 253 b 367 0 589 118 503 0 b 104 343 193 0 104 161 b 367 694 104 524 193 694 b 589 442 503 694 589 576 l 603 442 b 367 713 603 590 507 713 b 49 343 157 713 49 536 b 367 -18 49 149 158 -18 z m 661 0 b 640 74 650 25 640 44 l 640 1000 l 568 972 b 589 899 579 947 589 928 l 589 0 z "},"e":{"ha":729,"x_min":0,"x_max":0,"o":"m 394 -18 b 681 183 544 -18 625 63 l 664 190 b 394 0 618 69 525 0 b 104 343 221 0 104 161 b 394 694 104 524 221 694 b 601 486 538 694 601 594 b 365 257 601 383 544 257 b 88 394 235 257 135 318 l 76 385 b 365 236 124 308 215 236 b 663 486 543 236 663 351 b 394 713 663 618 547 713 b 49 343 185 713 49 536 b 394 -18 49 149 186 -18 z "},"f":{"ha":415,"x_min":0,"x_max":0,"o":"m 221 0 b 200 74 210 25 200 44 l 200 972 l 149 972 l 149 74 b 128 0 149 44 139 25 z m 363 679 l 363 694 l 28 694 l 28 679 z m 406 972 l 167 972 l 167 957 l 276 957 b 406 908 319 957 383 929 z "},"g":{"ha":704,"x_min":0,"x_max":0,"o":"m 356 -236 b 663 -40 492 -236 663 -190 b 160 254 663 267 160 139 b 238 307 160 282 192 289 l 224 317 b 111 231 181 304 111 282 b 614 -40 111 76 614 222 b 356 -219 614 -179 474 -219 b 99 -35 244 -219 99 -179 b 250 150 99 93 204 131 l 236 158 b 49 -35 193 147 49 104 b 356 -236 49 -190 224 -236 z m 356 274 b 579 488 449 274 579 318 b 356 713 579 654 449 713 b 132 488 264 713 132 654 b 356 274 132 318 265 274 z m 356 290 b 181 488 285 290 181 329 b 356 696 181 644 285 696 b 531 488 429 696 531 644 b 356 290 531 329 429 290 z m 617 713 l 450 690 l 450 675 l 543 675 b 617 654 572 675 592 665 z "},"h":{"ha":731,"x_min":0,"x_max":0,"o":"m 633 453 b 401 713 633 617 528 713 b 138 469 278 713 138 607 l 156 469 b 401 694 156 594 281 694 b 582 453 518 694 582 615 z m 176 0 b 156 74 165 25 156 44 l 156 1000 l 83 972 b 104 899 94 947 104 928 l 104 74 b 83 0 104 44 94 25 z m 654 0 b 633 74 643 25 633 44 l 633 453 l 582 453 l 582 74 b 561 0 582 44 572 25 z "},"i":{"ha":260,"x_min":0,"x_max":0,"o":"m 176 0 b 156 74 165 25 156 44 l 156 722 l 83 694 b 104 621 94 669 104 650 l 104 74 b 83 0 104 44 94 25 z m 131 800 b 172 842 156 800 172 818 b 131 883 172 865 156 883 b 88 842 104 883 88 864 b 131 800 88 819 104 800 z "},"j":{"ha":263,"x_min":0,"x_max":0,"o":"m 39 -243 b 163 -8 144 -243 163 -118 l 111 0 b 39 -228 111 -125 114 -228 b -28 -169 8 -228 -12 -196 l -56 -214 b 39 -243 -26 -233 7 -243 z m 163 -8 l 163 722 l 90 694 b 111 621 101 669 111 650 l 111 0 z m 138 800 b 179 842 163 800 179 818 b 138 883 179 865 163 883 b 94 842 111 883 94 864 b 138 800 94 819 111 800 z "},"k":{"ha":701,"x_min":0,"x_max":0,"o":"m 132 224 l 540 621 b 631 694 567 647 597 669 l 538 694 b 517 621 546 669 543 647 l 108 224 z m 176 0 b 156 74 165 25 156 44 l 156 1000 l 83 972 b 104 899 94 947 104 928 l 104 74 b 83 0 104 44 94 25 z m 690 0 b 600 74 657 25 626 47 l 288 379 l 249 350 l 531 74 b 551 0 557 47 560 25 z "},"l":{"ha":260,"x_min":0,"x_max":0,"o":"m 176 0 b 156 74 165 25 156 44 l 156 1000 l 83 972 b 104 899 94 947 104 928 l 104 74 b 83 0 104 44 94 25 z "},"m":{"ha":1117,"x_min":0,"x_max":0,"o":"m 1019 453 b 815 713 1019 617 914 713 b 565 469 692 713 565 607 l 583 469 b 815 694 583 594 694 694 b 968 453 904 694 968 615 z m 176 0 b 156 74 165 25 156 44 l 156 722 l 83 694 b 104 621 94 669 104 650 l 104 74 b 83 0 104 44 94 25 z m 613 0 b 592 74 601 25 592 44 l 592 453 l 540 453 l 540 74 b 519 0 540 44 531 25 z m 592 453 b 388 713 592 617 486 713 b 138 469 264 713 138 607 l 156 469 b 388 694 156 594 267 694 b 540 453 476 694 540 615 z m 1040 0 b 1019 74 1029 25 1019 44 l 1019 453 l 968 453 l 968 74 b 947 0 968 44 958 25 z "},"n":{"ha":731,"x_min":0,"x_max":0,"o":"m 633 453 b 401 713 633 617 528 713 b 138 469 278 713 138 607 l 156 469 b 401 694 156 594 281 694 b 582 453 518 694 582 615 z m 176 0 b 156 74 165 25 156 44 l 156 722 l 83 694 b 104 621 94 669 104 650 l 104 74 b 83 0 104 44 94 25 z m 654 0 b 633 74 643 25 633 44 l 633 453 l 582 453 l 582 74 b 561 0 582 44 572 25 z "},"o":{"ha":788,"x_min":0,"x_max":0,"o":"m 394 -18 b 739 343 604 -18 739 149 b 394 713 739 536 604 713 b 49 343 185 713 49 536 b 394 -18 49 149 186 -18 z m 394 0 b 104 343 221 0 104 161 b 394 694 104 524 221 694 b 683 343 569 694 683 524 b 394 0 683 161 569 0 z "},"p":{"ha":744,"x_min":0,"x_max":0,"o":"m 378 -18 b 696 351 588 -18 696 158 b 378 713 696 546 586 713 b 142 442 238 713 142 590 l 156 442 b 378 694 156 576 242 694 b 640 351 551 694 640 533 b 378 0 640 171 551 0 b 156 253 242 0 156 118 l 142 253 b 378 -18 142 104 238 -18 z m 176 -236 b 156 -162 165 -211 156 -192 l 156 722 l 83 694 b 104 621 94 669 104 650 l 104 -162 b 83 -236 104 -192 94 -211 z "},"q":{"ha":744,"x_min":0,"x_max":0,"o":"m 367 -18 b 603 253 507 -18 603 104 l 589 253 b 367 0 589 118 503 0 b 104 351 193 0 104 171 b 367 694 104 533 193 694 b 589 442 503 694 589 576 l 603 442 b 367 713 603 590 507 713 b 49 351 158 713 49 546 b 367 -18 49 158 157 -18 z m 661 -236 b 640 -162 650 -211 640 -192 l 640 722 l 568 694 b 589 621 579 669 589 650 l 589 -162 b 568 -236 589 -192 579 -211 z "},"r":{"ha":494,"x_min":0,"x_max":0,"o":"m 156 469 b 318 694 156 650 253 694 b 439 607 404 694 429 639 l 468 635 b 318 713 453 668 406 713 b 138 469 250 713 138 663 z m 176 0 b 156 74 165 25 156 44 l 156 722 l 83 694 b 104 621 94 669 104 650 l 104 74 b 83 0 104 44 94 25 z "},"s":{"ha":646,"x_min":0,"x_max":0,"o":"m 321 -18 b 597 182 515 -18 597 71 b 125 524 597 408 125 335 b 346 694 125 607 172 694 b 553 504 482 694 539 610 l 588 525 b 346 713 569 628 475 713 b 69 524 136 713 69 619 b 542 182 69 286 542 343 b 321 0 542 83 481 0 b 65 190 190 0 97 69 l 49 183 b 321 -18 90 63 171 -18 z "},"t":{"ha":393,"x_min":0,"x_max":0,"o":"m 221 0 b 200 74 210 25 200 44 l 200 861 l 128 833 b 149 760 139 808 149 789 l 149 74 b 128 0 149 44 139 25 z m 363 679 l 363 694 l 28 694 l 28 679 z "},"u":{"ha":722,"x_min":0,"x_max":0,"o":"m 325 -18 b 585 225 449 -18 585 88 l 567 225 b 325 0 567 100 446 0 b 149 242 219 0 149 79 l 97 242 b 325 -18 97 78 210 -18 z m 149 242 l 149 722 l 76 694 b 97 621 88 669 97 650 l 97 242 z m 639 0 b 618 74 628 25 618 44 l 618 722 l 546 694 b 567 621 557 669 567 650 l 567 0 z "},"v":{"ha":621,"x_min":0,"x_max":0,"o":"m 319 0 l 333 76 l 114 621 b 118 694 101 650 107 669 l 21 694 b 58 621 36 674 47 650 l 307 0 z m 563 621 b 600 694 574 650 586 672 l 540 694 b 544 621 551 669 556 650 l 328 71 l 319 0 z "},"w":{"ha":1008,"x_min":0,"x_max":0,"o":"m 735 0 l 749 76 l 536 621 b 540 694 525 650 529 669 l 443 694 b 481 621 458 674 469 650 l 722 0 z m 313 0 l 326 76 l 114 621 b 118 694 103 650 107 669 l 21 694 b 58 621 36 674 47 650 l 300 0 z m 528 621 l 510 621 l 321 71 l 313 0 z m 950 621 b 988 694 960 650 974 672 l 928 694 b 932 621 939 669 942 650 l 743 71 l 735 0 z "},"x":{"ha":640,"x_min":0,"x_max":0,"o":"m 603 0 b 542 74 579 25 560 47 l 140 621 b 121 694 122 646 110 669 l 24 694 b 85 621 46 669 65 646 l 486 74 b 506 0 503 47 517 25 z m 97 0 b 114 74 89 25 92 44 l 322 349 l 307 358 l 96 74 b 24 0 74 44 53 25 z m 544 621 b 617 694 565 650 590 669 l 543 694 b 526 621 554 669 549 651 l 315 331 l 331 324 z "},"y":{"ha":624,"x_min":0,"x_max":0,"o":"m 351 53 l 114 621 b 118 694 101 650 107 669 l 21 694 b 58 621 36 674 46 650 l 325 -24 z m 150 -243 b 340 0 257 -243 297 -103 l 336 32 b 150 -228 283 -103 238 -228 b 83 -169 119 -228 99 -194 l 56 -214 b 150 -243 85 -233 118 -243 z m 569 621 b 607 694 581 650 593 672 l 547 694 b 551 621 558 669 563 650 l 325 7 l 340 0 z "},"z":{"ha":567,"x_min":0,"x_max":0,"o":"m 156 15 b 149 89 125 36 125 53 l 522 679 l 463 679 l 42 15 z m 542 0 l 542 64 b 413 15 519 43 456 15 l 42 15 l 42 0 z m 49 631 b 178 679 71 651 135 679 l 522 679 l 522 694 l 49 694 z "}}}
